<svg width="25" height="25" viewBox="0 0 25 25" fill="none" xmlns="http://www.w3.org/2000/svg">
<circle cx="12.6735" cy="12.0192" r="12.0192" fill="white"/>
<path fill-rule="evenodd" clip-rule="evenodd" d="M12.6738 5.76953C10.9767 5.76953 10.7637 5.77674 10.0969 5.80703C9.43152 5.83732 8.97719 5.94309 8.5796 6.09742C8.16263 6.25446 7.78494 6.50056 7.47287 6.81857C7.1548 7.13079 6.90869 7.50865 6.75171 7.92578C6.59739 8.3229 6.4921 8.77722 6.46133 9.44261C6.43104 10.1094 6.42383 10.3224 6.42383 12.0195C6.42383 13.7166 6.43104 13.9296 6.46133 14.5965C6.49162 15.2618 6.59739 15.7162 6.75171 16.1133C6.91181 16.5243 7.12527 16.8729 7.47287 17.2205C7.78494 17.5385 8.16263 17.7846 8.5796 17.9416C8.97719 18.0955 9.43152 18.2013 10.0969 18.232C10.7637 18.2623 10.9767 18.2695 12.6738 18.2695C14.3709 18.2695 14.5839 18.2623 15.2508 18.232C15.9161 18.2017 16.3705 18.096 16.7676 17.9416C17.1847 17.7847 17.5626 17.5386 17.8748 17.2205C18.1929 16.9083 18.439 16.5304 18.5959 16.1133C18.7498 15.7162 18.8556 15.2618 18.8863 14.5965C18.9166 13.9296 18.9238 13.7166 18.9238 12.0195C18.9238 10.3224 18.9166 10.1094 18.8863 9.44261C18.856 8.77722 18.7503 8.3229 18.5955 7.92578C18.4386 7.50869 18.1927 7.13083 17.8748 6.81857C17.5626 6.50049 17.1847 6.25438 16.7676 6.09742C16.3705 5.94357 15.9161 5.8378 15.2508 5.80703C14.5839 5.77674 14.3709 5.76953 12.6738 5.76953ZM12.6738 6.89549C14.3426 6.89549 14.5402 6.90222 15.1993 6.93203C15.8084 6.95992 16.1397 7.06184 16.3599 7.14742C16.6517 7.26088 16.8599 7.39597 17.0786 7.61472C17.2974 7.83347 17.4325 8.04165 17.5459 8.33347C17.6315 8.55367 17.7334 8.88443 17.7613 9.49405C17.7911 10.1527 17.7979 10.3508 17.7979 12.0195C17.7979 13.6883 17.7911 13.8859 17.7613 14.545C17.7334 15.1546 17.6315 15.4854 17.5459 15.7056C17.4458 15.9771 17.2861 16.2227 17.0786 16.4243C16.877 16.6319 16.6314 16.7915 16.3599 16.8916C16.1397 16.9772 15.8084 17.0791 15.1993 17.107C14.5407 17.1368 14.3426 17.1436 12.6738 17.1436C11.0051 17.1436 10.807 17.1368 10.1483 17.107C9.53873 17.0791 9.20796 16.9772 8.98777 16.8916C8.71628 16.7915 8.47067 16.6319 8.26902 16.4243C8.06153 16.2227 7.90186 15.9771 7.80171 15.7056C7.71614 15.4854 7.61421 15.1546 7.58633 14.545C7.55652 13.8864 7.54979 13.6883 7.54979 12.0195C7.54979 10.3508 7.55652 10.1532 7.58633 9.49405C7.61421 8.88443 7.71614 8.55367 7.80171 8.33347C7.91517 8.04165 8.05027 7.83347 8.26902 7.61472C8.47068 7.40721 8.71628 7.24753 8.98777 7.14742C9.20796 7.06184 9.53873 6.95992 10.1483 6.93203C10.807 6.90222 11.0051 6.89549 12.6738 6.89549Z" fill="#FA8832"/>
<path fill-rule="evenodd" clip-rule="evenodd" d="M12.674 8.65377C11.7814 8.65377 10.9254 9.00834 10.2943 9.63947C9.66316 10.2706 9.30859 11.1266 9.30859 12.0192C9.30859 12.9117 9.66316 13.7677 10.2943 14.3988C10.9254 15.03 11.7814 15.3845 12.674 15.3845C13.5665 15.3845 14.4225 15.03 15.0537 14.3988C15.6848 13.7677 16.0394 12.9117 16.0394 12.0192C16.0394 11.1266 15.6848 10.2706 15.0537 9.63947C14.4225 9.00834 13.5665 8.65377 12.674 8.65377ZM12.674 14.1826C12.1002 14.1826 11.5499 13.9547 11.1442 13.549C10.7385 13.1432 10.5105 12.5929 10.5105 12.0192C10.5105 11.4454 10.7385 10.8951 11.1442 10.4894C11.5499 10.0836 12.1002 9.85569 12.674 9.85569C13.2478 9.85569 13.798 10.0836 14.2038 10.4894C14.6095 10.8951 14.8374 11.4454 14.8374 12.0192C14.8374 12.5929 14.6095 13.1432 14.2038 13.549C13.798 13.9547 13.2478 14.1826 12.674 14.1826ZM16.8567 8.70185C16.8567 8.80286 16.8368 8.90289 16.7981 8.99622C16.7595 9.08955 16.7028 9.17435 16.6314 9.24578C16.5599 9.31721 16.4751 9.37387 16.3818 9.41252C16.2885 9.45118 16.1885 9.47108 16.0874 9.47108C15.9864 9.47108 15.8864 9.45118 15.7931 9.41252C15.6997 9.37387 15.6149 9.31721 15.5435 9.24578C15.4721 9.17435 15.4154 9.08955 15.3768 8.99622C15.3381 8.90289 15.3182 8.80286 15.3182 8.70185C15.3182 8.49784 15.3993 8.30218 15.5435 8.15792C15.6878 8.01366 15.8834 7.93262 16.0874 7.93262C16.2915 7.93262 16.4871 8.01366 16.6314 8.15792C16.7756 8.30218 16.8567 8.49784 16.8567 8.70185Z" fill="#FA8832"/>
</svg>
