<svg width="25" height="25" viewBox="0 0 25 25" fill="none" xmlns="http://www.w3.org/2000/svg">
<circle cx="12.3278" cy="12.0192" r="12.0192" fill="white"/>
<path d="M10.366 16.287C11.1781 16.2921 11.9831 16.1359 12.7343 15.8275C13.4856 15.5191 14.1682 15.0646 14.7424 14.4903C15.3166 13.9161 15.7712 13.2336 16.0796 12.4823C16.388 11.731 16.5442 10.926 16.5391 10.1139V9.83028C16.96 9.52186 17.3244 9.14287 17.616 8.71009C17.2196 8.88345 16.8002 8.99843 16.3708 9.05144C16.826 8.78018 17.1676 8.3532 17.3323 7.84951C16.9081 8.10405 16.4428 8.28299 15.9573 8.37836C15.6304 8.02998 15.1977 7.79906 14.7263 7.72133C14.2549 7.64361 13.771 7.72341 13.3495 7.94839C12.928 8.17336 12.5924 8.53098 12.3946 8.9659C12.1969 9.40082 12.1479 9.88879 12.2554 10.3543C11.3929 10.312 10.549 10.0885 9.77866 9.69832C9.00829 9.30816 8.32874 8.76013 7.78425 8.0899C7.5097 8.56643 7.42648 9.12948 7.55145 9.66505C7.67641 10.2006 8.00023 10.6687 8.45733 10.9745C8.12013 10.9615 7.79072 10.8693 7.49579 10.7053V10.7293C7.4928 11.2273 7.66056 11.7113 7.97113 12.1006C8.2817 12.4899 8.71631 12.761 9.20252 12.8687C8.88889 12.9531 8.56036 12.9662 8.24099 12.9072C8.38175 13.3319 8.65045 13.7027 9.01024 13.9686C9.37003 14.2346 9.80329 14.3828 10.2506 14.3928C9.4858 15.0084 8.53526 15.3473 7.55349 15.3543C7.38135 15.3493 7.20961 15.3349 7.03906 15.3111C8.03279 15.9442 9.18772 16.278 10.366 16.2726" fill="#FA8832"/>
</svg>
