<svg width="25" height="25" viewBox="0 0 25 25" fill="none" xmlns="http://www.w3.org/2000/svg">
<circle cx="12.9802" cy="12.0192" r="12.0192" fill="white"/>
<path d="M17.5983 9.71344C17.5436 9.51026 17.4365 9.32498 17.2879 9.17602C17.1393 9.02706 16.9543 8.91962 16.7512 8.8644C15.9983 8.65767 12.9863 8.6543 12.9863 8.6543C12.9863 8.6543 9.97476 8.65094 9.2214 8.84853C9.01847 8.90629 8.83381 9.01525 8.68513 9.16494C8.53645 9.31463 8.42874 9.50003 8.37236 9.70334C8.1738 10.4562 8.17188 12.0178 8.17188 12.0178C8.17188 12.0178 8.16995 13.587 8.36707 14.3322C8.47764 14.7442 8.80216 15.0697 9.21466 15.1807C9.97524 15.3875 12.9791 15.3908 12.9791 15.3908C12.9791 15.3908 15.9911 15.3942 16.744 15.1971C16.9471 15.142 17.1323 15.0348 17.2813 14.8861C17.4303 14.7375 17.5379 14.5525 17.5935 14.3495C17.7925 13.5971 17.794 12.036 17.794 12.036C17.794 12.036 17.8036 10.4663 17.5983 9.71344ZM12.0228 13.4644L12.0252 10.5798L14.5286 12.0245L12.0228 13.4644Z" fill="#FA8832"/>
</svg>
